<?xml version="1.0" encoding="UTF-8"?>
<svg width="1600" height="900" viewBox="0 0 1600 900" fill="none" xmlns="http://www.w3.org/2000/svg" role="img" aria-label="Abstract waves background">
  <defs>
    <linearGradient id="g1" x1="0" y1="0" x2="1" y2="1">
      <stop offset="0%" stop-color="#0ea5e9"/>
      <stop offset="100%" stop-color="#0369a1"/>
    </linearGradient>
    <linearGradient id="g2" x1="0" y1="1" x2="1" y2="0">
      <stop offset="0%" stop-color="#38bdf8" stop-opacity="0.6"/>
      <stop offset="100%" stop-color="#0ea5e9" stop-opacity="0.2"/>
    </linearGradient>
    <filter id="blur" x="-20%" y="-20%" width="140%" height="140%">
      <feGaussianBlur in="SourceGraphic" stdDeviation="60"/>
    </filter>
  </defs>

  <rect width="1600" height="900" fill="url(#g1)"/>

  <g filter="url(#blur)">
    <circle cx="200" cy="200" r="180" fill="#7dd3fc" fill-opacity="0.35"/>
    <circle cx="1400" cy="300" r="220" fill="#38bdf8" fill-opacity="0.25"/>
    <circle cx="900" cy="750" r="260" fill="#0ea5e9" fill-opacity="0.22"/>
  </g>

  <path d="M0 620C180 560 320 560 500 600C720 650 940 540 1160 520C1320 508 1420 540 1600 590V900H0V620Z" fill="url(#g2)"/>
  <path d="M0 720C200 660 360 660 540 700C760 750 1000 660 1200 640C1380 626 1480 660 1600 700V900H0V720Z" fill="#e0f2fe" fill-opacity="0.25"/>
</svg>
